<?xml version="1.0" standalone="no"?>
<!DOCTYPE svg PUBLIC "-//W3C//DTD SVG 20010904//EN"
 "http://www.w3.org/TR/2001/REC-SVG-20010904/DTD/svg10.dtd">
<svg version="1.0" xmlns="http://www.w3.org/2000/svg"
 width="512.000000pt" height="512.000000pt" viewBox="0 0 512.000000 512.000000"
 preserveAspectRatio="xMidYMid meet">

<g transform="translate(0.000000,512.000000) scale(0.100000,-0.100000)"
fill="#000000" stroke="none">
<path d="M691 5106 c-47 -26 -50 -45 -51 -293 l0 -233 -280 0 c-195 0 -287 -4
-305 -12 -59 -27 -55 127 -55 -2277 0 -1692 3 -2216 12 -2236 26 -58 -88 -55
1838 -55 1926 0 1812 -3 1838 55 8 18 12 99 12 255 l0 230 280 0 c305 0 325 3
348 55 9 19 12 233 12 853 l0 827 361 625 c199 344 373 648 386 677 82 176 2
397 -175 487 -111 56 -229 56 -341 0 -82 -41 -116 -76 -180 -183 l-51 -84 0
621 c0 460 -3 628 -12 647 -26 58 88 55 -1840 55 -1452 -1 -1777 -3 -1797 -14z
m3449 -922 l0 -736 -585 -1012 c-321 -557 -587 -1019 -589 -1027 -3 -8 -24
-151 -46 -319 -22 -168 -43 -315 -46 -327 l-4 -23 -1015 0 -1015 0 0 890 c0
968 2 932 -55 958 -41 19 -81 14 -112 -12 l-28 -24 -3 -964 c-2 -712 1 -970 9
-991 25 -60 -61 -57 1459 -57 l1390 0 0 -170 0 -170 -1650 0 -1650 0 0 2090 0
2090 220 0 220 0 0 -500 c0 -536 0 -539 51 -566 45 -23 78 -17 115 20 l34 34
0 776 0 776 1650 0 1650 0 0 -736z m679 -299 c64 -33 109 -122 96 -188 -4 -18
-21 -56 -37 -85 -28 -50 -31 -52 -52 -39 -11 8 -78 47 -148 87 -71 40 -128 78
-128 85 0 23 64 109 99 132 40 27 126 31 170 8z m-227 -411 c81 -47 148 -90
148 -95 0 -10 -1216 -2119 -1229 -2132 -10 -10 -313 161 -309 173 8 19 1234
2139 1237 2140 2 0 71 -39 153 -86z m-452 -2144 l0 -590 -446 0 -446 0 163
126 c90 70 176 138 191 152 15 14 141 222 280 464 139 241 254 438 255 438 2
0 3 -265 3 -590z m-848 -207 l66 -39 -126 -97 c-69 -54 -127 -95 -129 -93 -2
2 5 70 16 152 12 81 21 152 21 156 0 5 19 -2 43 -16 23 -14 72 -42 109 -63z"/>
<path d="M2881 4566 c-37 -20 -50 -55 -51 -128 l0 -68 -65 0 c-76 0 -111 -14
-131 -51 -27 -52 -8 -115 41 -137 14 -7 55 -12 90 -12 l65 0 0 -65 c0 -38 6
-78 14 -94 35 -66 137 -66 172 0 8 16 14 56 14 94 l0 65 65 0 c76 0 111 14
131 51 27 52 8 115 -41 137 -14 7 -55 12 -90 12 l-65 0 0 65 c0 76 -14 111
-51 131 -34 17 -67 17 -98 0z"/>
<path d="M2180 4502 c-14 -11 -70 -138 -160 -362 l-138 -345 -46 -5 c-57 -7
-86 -34 -93 -87 -4 -34 -1 -45 26 -76 l32 -35 -31 -76 c-37 -95 -38 -117 -1
-158 24 -27 36 -33 69 -33 59 0 82 28 132 155 l43 110 227 0 227 0 43 -110
c50 -127 73 -155 132 -155 33 0 45 6 69 33 37 41 36 63 -1 158 l-31 76 32 35
c27 31 30 42 26 76 -7 53 -36 80 -93 87 l-46 5 -138 345 c-90 224 -146 351
-160 362 -13 10 -39 18 -60 18 -21 0 -47 -8 -60 -18z m133 -530 c37 -92 67
-171 67 -175 0 -4 -63 -7 -140 -7 -77 0 -140 3 -140 7 0 15 134 343 140 343 3
0 36 -75 73 -168z"/>
<path d="M677 3030 c-73 -58 -26 -180 69 -180 35 0 94 59 94 94 0 86 -98 137
-163 86z"/>
<path d="M1534 3040 c-71 -28 -70 -146 1 -178 19 -9 256 -12 956 -12 1010 0
971 -2 997 55 19 41 14 81 -12 112 l-24 28 -949 2 c-522 1 -958 -2 -969 -7z"/>
<path d="M1509 2581 c-40 -40 -40 -89 0 -133 l29 -33 324 -3 c178 -2 338 0
357 3 81 15 110 108 52 166 l-29 29 -352 0 -352 0 -29 -29z"/>
<path d="M2709 2581 c-21 -22 -29 -39 -29 -66 0 -88 38 -105 233 -105 133 0
147 2 177 23 58 39 64 106 13 153 -25 23 -30 24 -195 24 l-170 0 -29 -29z"/>
<path d="M1534 2160 c-71 -28 -70 -146 1 -178 33 -15 1240 -17 1279 -2 35 13
60 56 59 98 -1 27 -9 43 -32 64 l-31 28 -628 -1 c-345 0 -637 -4 -648 -9z"/>
<path d="M1531 1716 c-54 -30 -67 -106 -27 -153 l24 -28 357 -3 356 -3 29 30
c49 49 39 125 -20 156 -40 21 -681 22 -719 1z"/>
</g>
</svg>
